<mxfile host="app.diagrams.net" modified="2020-07-22T07:06:05.578Z" agent="5.0 (Windows NT 10.0; Win64; x64) AppleWebKit/537.36 (KHTML, like Gecko) Chrome/84.0.4147.89 Safari/537.36 Edg/84.0.522.40" etag="_rMhjMCHN8gTMIG5GggU" version="13.4.5" type="github">
  <diagram id="f5bukpE60ZQ82NX98g_h" name="Page-1">
    <mxGraphModel dx="1185" dy="662" grid="1" gridSize="10" guides="1" tooltips="1" connect="1" arrows="1" fold="1" page="1" pageScale="1" pageWidth="850" pageHeight="1100" math="0" shadow="0">
      <root>
        <mxCell id="0" />
        <mxCell id="1" parent="0" />
        <mxCell id="0CGstQvsAs-tv6y7JdVo-7" style="edgeStyle=orthogonalEdgeStyle;rounded=0;orthogonalLoop=1;jettySize=auto;html=1;entryX=0.5;entryY=0;entryDx=0;entryDy=0;" edge="1" parent="1" source="0CGstQvsAs-tv6y7JdVo-1" target="0CGstQvsAs-tv6y7JdVo-6">
          <mxGeometry relative="1" as="geometry" />
        </mxCell>
        <mxCell id="0CGstQvsAs-tv6y7JdVo-1" value="&lt;font face=&quot;TH Sarabun New&quot; style=&quot;font-size: 18px&quot;&gt;เริ่มต้น&lt;/font&gt;" style="rounded=1;whiteSpace=wrap;html=1;" vertex="1" parent="1">
          <mxGeometry x="476" y="130" width="120" height="60" as="geometry" />
        </mxCell>
        <mxCell id="0CGstQvsAs-tv6y7JdVo-10" style="edgeStyle=orthogonalEdgeStyle;rounded=0;orthogonalLoop=1;jettySize=auto;html=1;exitX=0;exitY=0.5;exitDx=0;exitDy=0;entryX=1;entryY=0.5;entryDx=0;entryDy=0;" edge="1" parent="1" source="0CGstQvsAs-tv6y7JdVo-6" target="0CGstQvsAs-tv6y7JdVo-9">
          <mxGeometry relative="1" as="geometry" />
        </mxCell>
        <mxCell id="0CGstQvsAs-tv6y7JdVo-14" style="edgeStyle=orthogonalEdgeStyle;rounded=0;orthogonalLoop=1;jettySize=auto;html=1;exitX=0.5;exitY=1;exitDx=0;exitDy=0;entryX=0.5;entryY=0;entryDx=0;entryDy=0;" edge="1" parent="1" source="0CGstQvsAs-tv6y7JdVo-6">
          <mxGeometry relative="1" as="geometry">
            <mxPoint x="536" y="350" as="targetPoint" />
          </mxGeometry>
        </mxCell>
        <mxCell id="0CGstQvsAs-tv6y7JdVo-6" value="&lt;font face=&quot;TH Sarabun New&quot; style=&quot;font-size: 18px&quot;&gt;รับไฟล์เสียงเคาะ&lt;br&gt;ตั้งแต่ 2 ครั้งขึ้นไป&lt;/font&gt;" style="rhombus;whiteSpace=wrap;html=1;" vertex="1" parent="1">
          <mxGeometry x="441" y="230" width="190" height="80" as="geometry" />
        </mxCell>
        <mxCell id="0CGstQvsAs-tv6y7JdVo-20" style="edgeStyle=orthogonalEdgeStyle;rounded=0;orthogonalLoop=1;jettySize=auto;html=1;exitX=0;exitY=0.5;exitDx=0;exitDy=0;" edge="1" parent="1" source="0CGstQvsAs-tv6y7JdVo-9">
          <mxGeometry relative="1" as="geometry">
            <mxPoint x="216" y="269.9310344827586" as="targetPoint" />
          </mxGeometry>
        </mxCell>
        <mxCell id="0CGstQvsAs-tv6y7JdVo-9" value="&lt;font face=&quot;TH Sarabun New&quot; style=&quot;font-size: 18px&quot;&gt;ส่งโค้ด 500 เซิร์ฟเวอร์&lt;br&gt;ไม่ได้รับไฟล์เสียง&lt;/font&gt;" style="rounded=0;whiteSpace=wrap;html=1;" vertex="1" parent="1">
          <mxGeometry x="266" y="240" width="120" height="60" as="geometry" />
        </mxCell>
        <mxCell id="0CGstQvsAs-tv6y7JdVo-12" value="No" style="text;html=1;strokeColor=none;fillColor=none;align=center;verticalAlign=middle;whiteSpace=wrap;rounded=0;" vertex="1" parent="1">
          <mxGeometry x="401" y="250" width="40" height="20" as="geometry" />
        </mxCell>
        <mxCell id="0CGstQvsAs-tv6y7JdVo-24" style="edgeStyle=orthogonalEdgeStyle;rounded=0;orthogonalLoop=1;jettySize=auto;html=1;exitX=0.5;exitY=1;exitDx=0;exitDy=0;entryX=0.5;entryY=0;entryDx=0;entryDy=0;" edge="1" parent="1" source="0CGstQvsAs-tv6y7JdVo-15" target="0CGstQvsAs-tv6y7JdVo-23">
          <mxGeometry relative="1" as="geometry" />
        </mxCell>
        <mxCell id="0CGstQvsAs-tv6y7JdVo-15" value="&lt;font face=&quot;TH Sarabun New&quot; style=&quot;font-size: 18px&quot;&gt;นำเสียงเข้ากระบวนการสกัดคุณลักษณะ&lt;/font&gt;" style="rounded=0;whiteSpace=wrap;html=1;" vertex="1" parent="1">
          <mxGeometry x="476" y="480" width="120" height="60" as="geometry" />
        </mxCell>
        <mxCell id="0CGstQvsAs-tv6y7JdVo-18" style="edgeStyle=orthogonalEdgeStyle;rounded=0;orthogonalLoop=1;jettySize=auto;html=1;exitX=0;exitY=0.5;exitDx=0;exitDy=0;entryX=1;entryY=0.5;entryDx=0;entryDy=0;" edge="1" parent="1" source="0CGstQvsAs-tv6y7JdVo-16" target="0CGstQvsAs-tv6y7JdVo-17">
          <mxGeometry relative="1" as="geometry" />
        </mxCell>
        <mxCell id="0CGstQvsAs-tv6y7JdVo-22" style="edgeStyle=orthogonalEdgeStyle;rounded=0;orthogonalLoop=1;jettySize=auto;html=1;entryX=0.5;entryY=0;entryDx=0;entryDy=0;" edge="1" parent="1" source="0CGstQvsAs-tv6y7JdVo-16" target="0CGstQvsAs-tv6y7JdVo-15">
          <mxGeometry relative="1" as="geometry" />
        </mxCell>
        <mxCell id="0CGstQvsAs-tv6y7JdVo-16" value="&lt;span style=&quot;font-size: 14px&quot;&gt;&lt;font face=&quot;TH Sarabun New&quot; style=&quot;font-size: 14px&quot;&gt;เลือกช่วงเสียงที่มีการเคาะที่มีค่า&lt;br&gt;แอมพลิจูดมากว่า 0.4 หน่วย&lt;/font&gt;&lt;/span&gt;" style="rhombus;whiteSpace=wrap;html=1;" vertex="1" parent="1">
          <mxGeometry x="438.5" y="350" width="195" height="80" as="geometry" />
        </mxCell>
        <mxCell id="0CGstQvsAs-tv6y7JdVo-33" style="edgeStyle=orthogonalEdgeStyle;rounded=0;orthogonalLoop=1;jettySize=auto;html=1;exitX=0;exitY=0.5;exitDx=0;exitDy=0;" edge="1" parent="1" source="0CGstQvsAs-tv6y7JdVo-17">
          <mxGeometry relative="1" as="geometry">
            <mxPoint x="216" y="390" as="targetPoint" />
          </mxGeometry>
        </mxCell>
        <mxCell id="0CGstQvsAs-tv6y7JdVo-17" value="&lt;font face=&quot;TH Sarabun New&quot; style=&quot;font-size: 18px&quot;&gt;คัดสัญญาณเสียงที่มีแอมพลิจูดต่ำทิ้ง&lt;/font&gt;" style="rounded=0;whiteSpace=wrap;html=1;" vertex="1" parent="1">
          <mxGeometry x="266" y="360" width="120" height="60" as="geometry" />
        </mxCell>
        <mxCell id="0CGstQvsAs-tv6y7JdVo-21" value="No" style="text;html=1;strokeColor=none;fillColor=none;align=center;verticalAlign=middle;whiteSpace=wrap;rounded=0;" vertex="1" parent="1">
          <mxGeometry x="398.5" y="370" width="40" height="20" as="geometry" />
        </mxCell>
        <mxCell id="0CGstQvsAs-tv6y7JdVo-26" style="edgeStyle=orthogonalEdgeStyle;rounded=0;orthogonalLoop=1;jettySize=auto;html=1;exitX=0.5;exitY=1;exitDx=0;exitDy=0;entryX=0.5;entryY=0;entryDx=0;entryDy=0;" edge="1" parent="1" source="0CGstQvsAs-tv6y7JdVo-23" target="0CGstQvsAs-tv6y7JdVo-25">
          <mxGeometry relative="1" as="geometry" />
        </mxCell>
        <mxCell id="0CGstQvsAs-tv6y7JdVo-23" value="&lt;font face=&quot;TH Sarabun New&quot; style=&quot;font-size: 18px&quot;&gt;ทำนายเสียงทุกการเคาะ&lt;/font&gt;" style="rounded=0;whiteSpace=wrap;html=1;" vertex="1" parent="1">
          <mxGeometry x="476" y="600" width="120" height="60" as="geometry" />
        </mxCell>
        <mxCell id="0CGstQvsAs-tv6y7JdVo-28" style="edgeStyle=orthogonalEdgeStyle;rounded=0;orthogonalLoop=1;jettySize=auto;html=1;entryX=0.5;entryY=0;entryDx=0;entryDy=0;" edge="1" parent="1" source="0CGstQvsAs-tv6y7JdVo-25" target="0CGstQvsAs-tv6y7JdVo-27">
          <mxGeometry relative="1" as="geometry" />
        </mxCell>
        <mxCell id="0CGstQvsAs-tv6y7JdVo-25" value="&lt;font face=&quot;TH Sarabun New&quot; style=&quot;font-size: 18px&quot;&gt;เลือกกลุ่มที่ทำนายออกมามากสุด&lt;/font&gt;" style="rounded=0;whiteSpace=wrap;html=1;" vertex="1" parent="1">
          <mxGeometry x="476" y="720" width="120" height="60" as="geometry" />
        </mxCell>
        <mxCell id="0CGstQvsAs-tv6y7JdVo-32" style="edgeStyle=orthogonalEdgeStyle;rounded=0;orthogonalLoop=1;jettySize=auto;html=1;exitX=0;exitY=0.5;exitDx=0;exitDy=0;entryX=0;entryY=0.5;entryDx=0;entryDy=0;" edge="1" parent="1" source="0CGstQvsAs-tv6y7JdVo-27" target="0CGstQvsAs-tv6y7JdVo-1">
          <mxGeometry relative="1" as="geometry">
            <Array as="points">
              <mxPoint x="216" y="870" />
              <mxPoint x="216" y="160" />
            </Array>
          </mxGeometry>
        </mxCell>
        <mxCell id="0CGstQvsAs-tv6y7JdVo-27" value="&lt;font face=&quot;TH Sarabun New&quot; style=&quot;font-size: 18px&quot;&gt;ส่งค่าทำนายไปยังผู้ใช้บริการ&lt;/font&gt;" style="rounded=0;whiteSpace=wrap;html=1;" vertex="1" parent="1">
          <mxGeometry x="476" y="840" width="120" height="60" as="geometry" />
        </mxCell>
        <mxCell id="0CGstQvsAs-tv6y7JdVo-30" value="Yes" style="text;html=1;strokeColor=none;fillColor=none;align=center;verticalAlign=middle;whiteSpace=wrap;rounded=0;" vertex="1" parent="1">
          <mxGeometry x="541" y="310" width="40" height="20" as="geometry" />
        </mxCell>
        <mxCell id="0CGstQvsAs-tv6y7JdVo-31" value="Yes" style="text;html=1;strokeColor=none;fillColor=none;align=center;verticalAlign=middle;whiteSpace=wrap;rounded=0;" vertex="1" parent="1">
          <mxGeometry x="541" y="430" width="40" height="20" as="geometry" />
        </mxCell>
      </root>
    </mxGraphModel>
  </diagram>
</mxfile>
